# xmcd CD database file
#
# Track frame offsets:
#	150
#	16257
#	33293
#	50118
#	72963
#	87964
#	104942
#	124848
#	139214
#	155530
#	170662
#	189806
#	215816
#	233108
#	250362
#	267641
#	281646
#	301244
#	316402
#	333664
#
# Disc length: 4796 seconds
#
# Revision: 1
# Processed by: cddbd v1.5.2PL0 Copyright (c) Steve Scherf et al.
# Submitted via: jetAudio 5
#
DISCID=3612ba14
DTITLE=Patricia Kaas - 20 Greatest hits
DYEAR=1900
DGENRE=
TTITLE0=C'est les femmes qui menet la danse
TTITLE1=Where do I begin (love story)
TTITLE2=Quand Jimmy dit
TTITLE3=Ma Liberte contre la tienne
TTITLE4=Kennedy rose
TTITLE5=Les moulins de mon coeur
TTITLE6=Трек 7
TTITLE7=Трек 8
TTITLE8=Трек 9
TTITLE9=Трек 10
TTITLE10=Трек 11
TTITLE11=Трек 12
TTITLE12=Трек 13
TTITLE13=Трек 14
TTITLE14=Трек 15
TTITLE15=Трек 16
TTITLE16=Трек 17
TTITLE17=Трек 18
TTITLE18=Трек 19
TTITLE19=Трек 20
EXTD=
EXTT0=
EXTT1=
EXTT2=
EXTT3=
EXTT4=
EXTT5=
EXTT6=
EXTT7=
EXTT8=
EXTT9=
EXTT10=
EXTT11=
EXTT12=
EXTT13=
EXTT14=
EXTT15=
EXTT16=
EXTT17=
EXTT18=
EXTT19=
PLAYORDER=
